<mxfile host="65bd71144e">
    <diagram id="qehY-76MtjJZgZc59gUY" name="plugin-workflow">
        <mxGraphModel dx="808" dy="787" grid="1" gridSize="10" guides="1" tooltips="1" connect="1" arrows="1" fold="1" page="1" pageScale="1" pageWidth="850" pageHeight="1100" math="0" shadow="0">
            <root>
                <mxCell id="0"/>
                <mxCell id="1" parent="0"/>
                <mxCell id="2" value="&lt;b&gt;New User create account&lt;/b&gt;&lt;br&gt;&lt;span style=&quot;&quot;&gt;&lt;font style=&quot;font-size: 11px;&quot;&gt;(new user data insert in tot database)&lt;/font&gt;&lt;/span&gt;" style="rounded=0;whiteSpace=wrap;html=1;" parent="1" vertex="1">
                    <mxGeometry x="30" y="30" width="210" height="60" as="geometry"/>
                </mxCell>
                <mxCell id="12" value="" style="edgeStyle=none;html=1;fontSize=12;" parent="1" source="8" target="11" edge="1">
                    <mxGeometry relative="1" as="geometry"/>
                </mxCell>
                <mxCell id="8" value="&lt;font style=&quot;font-size: 12px;&quot;&gt;user ID&lt;/font&gt;" style="shape=parallelogram;perimeter=parallelogramPerimeter;whiteSpace=wrap;html=1;fixedSize=1;fontSize=11;" parent="1" vertex="1">
                    <mxGeometry x="380" y="330" width="120" height="30" as="geometry"/>
                </mxCell>
                <mxCell id="20" style="edgeStyle=none;html=1;exitX=0.5;exitY=1;exitDx=0;exitDy=0;entryX=0.5;entryY=0;entryDx=0;entryDy=0;fontSize=12;" parent="1" source="9" target="19" edge="1">
                    <mxGeometry relative="1" as="geometry"/>
                </mxCell>
                <mxCell id="9" value="start" style="rounded=1;whiteSpace=wrap;html=1;fontSize=12;arcSize=50;" parent="1" vertex="1">
                    <mxGeometry x="380" y="40" width="120" height="40" as="geometry"/>
                </mxCell>
                <mxCell id="16" value="" style="edgeStyle=none;html=1;fontSize=12;" parent="1" source="11" target="15" edge="1">
                    <mxGeometry relative="1" as="geometry"/>
                </mxCell>
                <mxCell id="11" value="$cc = get user enrolled course count" style="whiteSpace=wrap;html=1;fontSize=12;" parent="1" vertex="1">
                    <mxGeometry x="360" y="390" width="160" height="60" as="geometry"/>
                </mxCell>
                <mxCell id="25" value="no" style="edgeStyle=none;html=1;exitX=1;exitY=0.5;exitDx=0;exitDy=0;entryX=0;entryY=0.5;entryDx=0;entryDy=0;fontSize=12;" parent="1" source="15" target="24" edge="1">
                    <mxGeometry relative="1" as="geometry"/>
                </mxCell>
                <mxCell id="27" style="edgeStyle=none;html=1;exitX=0.5;exitY=1;exitDx=0;exitDy=0;entryX=0.5;entryY=0;entryDx=0;entryDy=0;fontSize=12;" parent="1" source="15" target="26" edge="1">
                    <mxGeometry relative="1" as="geometry"/>
                </mxCell>
                <mxCell id="28" value="yes" style="edgeLabel;html=1;align=center;verticalAlign=middle;resizable=0;points=[];fontSize=12;" parent="27" vertex="1" connectable="0">
                    <mxGeometry x="-0.493" y="3" relative="1" as="geometry">
                        <mxPoint x="-4" y="6" as="offset"/>
                    </mxGeometry>
                </mxCell>
                <mxCell id="15" value="&lt;div style=&quot;text-align: start;&quot;&gt;$cc &amp;gt; 0&lt;/div&gt;" style="rhombus;whiteSpace=wrap;html=1;" parent="1" vertex="1">
                    <mxGeometry x="385.5" y="490" width="109" height="109" as="geometry"/>
                </mxCell>
                <mxCell id="30" value="yes" style="edgeStyle=none;html=1;exitX=0.5;exitY=1;exitDx=0;exitDy=0;entryX=0.5;entryY=0;entryDx=0;entryDy=0;fontSize=12;" parent="1" source="17" target="8" edge="1">
                    <mxGeometry relative="1" as="geometry"/>
                </mxCell>
                <mxCell id="17" value="plugin enabaled?" style="rhombus;whiteSpace=wrap;html=1;fontSize=12;" parent="1" vertex="1">
                    <mxGeometry x="400" y="200" width="80" height="80" as="geometry"/>
                </mxCell>
                <mxCell id="21" style="edgeStyle=none;html=1;exitX=0.5;exitY=1;exitDx=0;exitDy=0;entryX=0.5;entryY=0;entryDx=0;entryDy=0;fontSize=12;" parent="1" source="19" target="17" edge="1">
                    <mxGeometry relative="1" as="geometry"/>
                </mxCell>
                <mxCell id="19" value="get plugin information" style="shape=parallelogram;perimeter=parallelogramPerimeter;whiteSpace=wrap;html=1;fixedSize=1;fontSize=12;" parent="1" vertex="1">
                    <mxGeometry x="350" y="121" width="180" height="40" as="geometry"/>
                </mxCell>
                <mxCell id="24" value="display notice or&lt;br&gt;&amp;nbsp;redirect user to select course" style="shape=parallelogram;perimeter=parallelogramPerimeter;whiteSpace=wrap;html=1;fixedSize=1;fontSize=12;" parent="1" vertex="1">
                    <mxGeometry x="540" y="514.5" width="250" height="60" as="geometry"/>
                </mxCell>
                <mxCell id="26" value="stop" style="rounded=1;whiteSpace=wrap;html=1;fontSize=12;arcSize=50;" parent="1" vertex="1">
                    <mxGeometry x="380" y="640" width="120" height="40" as="geometry"/>
                </mxCell>
                <mxCell id="36" value="" style="group" parent="1" vertex="1" connectable="0">
                    <mxGeometry x="665" y="240" width="155" height="380" as="geometry"/>
                </mxCell>
                <mxCell id="32" style="edgeStyle=orthogonalEdgeStyle;html=1;exitX=0.5;exitY=1;exitDx=0;exitDy=0;fontSize=12;endArrow=none;endFill=0;" parent="36" source="24" edge="1">
                    <mxGeometry relative="1" as="geometry">
                        <mxPoint y="380" as="targetPoint"/>
                    </mxGeometry>
                </mxCell>
                <mxCell id="35" style="edgeStyle=orthogonalEdgeStyle;html=1;fontSize=12;endArrow=classic;endFill=1;rounded=0;" parent="36" source="17" edge="1">
                    <mxGeometry relative="1" as="geometry">
                        <mxPoint x="-215" y="380" as="targetPoint"/>
                        <mxPoint x="-185" as="sourcePoint"/>
                        <Array as="points">
                            <mxPoint x="155"/>
                            <mxPoint x="155" y="380"/>
                        </Array>
                    </mxGeometry>
                </mxCell>
                <mxCell id="37" value="no" style="edgeLabel;html=1;align=center;verticalAlign=middle;resizable=0;points=[];fontSize=12;" parent="35" vertex="1" connectable="0">
                    <mxGeometry x="-0.8716" relative="1" as="geometry">
                        <mxPoint as="offset"/>
                    </mxGeometry>
                </mxCell>
                <mxCell id="38" value="&lt;h1&gt;firstlogin&lt;/h1&gt;&lt;p&gt;in the database moodle save users login time informations in this table &lt;b&gt;firstlogin&lt;/b&gt; coloumn save user's first login time if this value is equal to&amp;nbsp;&lt;b&gt;0&lt;/b&gt;&amp;nbsp;which mean user is never logged into system.&lt;/p&gt;" style="text;html=1;strokeColor=default;fillColor=none;spacing=10;spacingTop=-19;whiteSpace=wrap;overflow=hidden;rounded=0;dashed=1;perimeterSpacing=0;labelBorderColor=none;labelBackgroundColor=none;" parent="1" vertex="1">
                    <mxGeometry x="20" y="130" width="220" height="150" as="geometry"/>
                </mxCell>
            </root>
        </mxGraphModel>
    </diagram>
</mxfile>